# xmcd
#
# Track frame offsets:
# 150
# 12733
# 30105
# 50776
# 67793
# 90456
# 102820
# 117744
#
# Disc length: 1787 seconds
#
#
# Revision: 0
# Processed by: cddbd v1.5.1PL2 Copyright (c) Steve Scherf et al.
# Submitted via: FreeRIP 2.945 
#
DISCID=6006f908
DTITLE=Hunter Nichols - Deep in Thought
DYEAR=2006
DGENRE=Country
TTITLE0=Six Feet in the Ground
TTITLE1=That's What's Keepin' Me Around
TTITLE2=I'm Leaving Today (Maggie May)
TTITLE3=Spins and Swerves
TTITLE4=Libby's Song
TTITLE5=Bordertown Girl
TTITLE6=I Really Love You
TTITLE7=Liza Jane
EXTD=
EXTT0=
EXTT1=
EXTT2=
EXTT3=
EXTT4=
EXTT5=
EXTT6=
EXTT7=
PLAYORDER=
